# xmcd
#
# Track frame offsets: 
#        150
#        14605
#        29335
#        43597
#        59137
#        74257
#        87192
#        100402
#        113150
#        125112
#        137970
#        151277
#        164227
#        177915
#        191682
#        206340
#        219780
#        232967
#        244932
#        257012
#        270315
#        283870
#        298062
#        313100
#        327225
#
# Disc length: 4548 seconds
#
# Revision: 0
# Processed by: cddbd v1.5.2PL0 Copyright (c) Steve Scherf et al.
# Submitted via: ExactAudioCopyFreeDBPlugin 1.0
#
DISCID=8311c219
DTITLE=Scrapper Blackwell - Mr Scrapper's Blues Guitar 2
DYEAR=2011
DGENRE=Blues
TTITLE0=Tired of Your Low Down Ways
TTITLE1=You Don't Mean Me No Good
TTITLE2=Non-Skid Tread
TTITLE3=How About Me?
TTITLE4=I Know That I'll Be Blue
TTITLE5=The Dirty Dozen
TTITLE6=Rocky Luck Blues
TTITLE7=Mean Baby Blues
TTITLE8=Second-Hand Woman Blues
TTITLE9=Second Hand Love
TTITLE10=Sloppy Drunk Blues
TTITLE11=How Long Has the Evening Train Been Gone
TTITLE12=Down in Black Bottom
TTITLE13=My Dream Blues
TTITLE14=Whiskey Man Blues
TTITLE15=Mix That Thing
TTITLE16=Mean Mistreater Mama
TTITLE17=Mean Mistreater Mama
TTITLE18=She's Alright with Me
TTITLE19=Blue Night Blues
TTITLE20=Don't Start No Stuff
TTITLE21=Bed Springs Blues No. 2
TTITLE22=Soon in the Morning
TTITLE23=Smoky Mountain Blues
TTITLE24=Sail on Sail on Blues
EXTD=
EXTT0=
EXTT1=
EXTT2=
EXTT3=
EXTT4=
EXTT5=
EXTT6=
EXTT7=
EXTT8=
EXTT9=
EXTT10=
EXTT11=
EXTT12=
EXTT13=
EXTT14=
EXTT15=
EXTT16=
EXTT17=
EXTT18=
EXTT19=
EXTT20=
EXTT21=
EXTT22=
EXTT23=
EXTT24=
PLAYORDER=
